<?xml version="1.0" ?><svg viewBox="0 0 64 64" xmlns="http://www.w3.org/2000/svg"><title/><g id="Certificate"><path d="M53.3525,50.3545a.9946.9946,0,0,0-1.1035.2754,6.9975,6.9975,0,0,1-10.498,0A1,1,0,0,0,40,51.29V60a.999.999,0,0,0,1.3164.9482L47,59.0537l5.6836,1.8945A.98.98,0,0,0,53,61a.999.999,0,0,0,1-1V51.29A1,1,0,0,0,53.3525,50.3545Z" style="fill:#5c2a9d"/><path d="M62,3H2A1,1,0,0,0,1,4V50a1,1,0,0,0,1,1H40.08a1.0005,1.0005,0,0,0,.8633-1.5049A6.8279,6.8279,0,0,1,40,46a7.2106,7.2106,0,0,1,.2188-1.75A7.001,7.001,0,0,1,54,46a6.8279,6.8279,0,0,1-.9434,3.4951A1.0005,1.0005,0,0,0,53.92,51H62a1,1,0,0,0,1-1V4A1,1,0,0,0,62,3Z" style="fill:#ffbd69"/><path d="M39.25,45H13a1,1,0,0,1-1-1,4.0039,4.0039,0,0,0-4-4,1,1,0,0,1-1-1V15a1,1,0,0,1,1-1,4.0039,4.0039,0,0,0,4-4,1,1,0,0,1,1-1H51a1,1,0,0,1,1,1,4.0039,4.0039,0,0,0,4,4,1,1,0,0,1,1,1V39a1,1,0,0,1-1,1,3.96,3.96,0,0,0-2.6924,1.0449,1,1,0,0,1-1.3769-.02A7.0088,7.0088,0,0,0,40.2188,44.25,1.0009,1.0009,0,0,1,39.25,45ZM13.917,43H38.51a9.0078,9.0078,0,0,1,14.16-3.9922A5.9559,5.9559,0,0,1,55,38.083V15.917A6.017,6.017,0,0,1,50.083,11H13.917A6.017,6.017,0,0,1,9,15.917V38.083A6.017,6.017,0,0,1,13.917,43Z" style="fill:#f37121"/><path d="M53.3291,39.5947A9.0088,9.0088,0,0,0,38.28,43.7568,9.2155,9.2155,0,0,0,38,46a8.9175,8.9175,0,0,0,1.209,4.4922,8.8236,8.8236,0,0,0,1.04,1.458,8.997,8.997,0,0,0,13.5039-.002,8.7521,8.7521,0,0,0,1.03-1.4433,8.9891,8.9891,0,0,0-1.4541-10.91Z" style="fill:#d9455f"/><rect height="8" rx="1" style="fill:#f37121" width="18" x="23" y="14"/><path d="M42,28H22a1,1,0,0,1,0-2H42a1,1,0,0,1,0,2Z" style="fill:#f37121"/><path d="M45,34H19a1,1,0,0,1,0-2H45a1,1,0,0,1,0,2Z" style="fill:#f37121"/></g></svg>